# xmcd
#
# Track frame offsets:
#	150
#	17887
#	37007
#	48087
#	64260
#	87302
#	104820
#	120885
#	139672
#	156507
#	174387
#	192905
#	211920
#
# Disc length: 2943 seconds
#
# Revision: 1
# Processed by: cddbd v1.5.1PL0 Copyright (c) Steve Scherf et al.
# Submitted via: CDex 1.50Beta5
#
DISCID=b40b7d0d
DTITLE=トワ・エ・モワ - HARVEST〜はじめに愛があった〜
DYEAR=1998
DGENRE=
TTITLE0=或る日突然
TTITLE1=友だちならば
TTITLE2=空よ
TTITLE3=虹と雪のバラード
TTITLE4=はじめに愛があった
TTITLE5=地球は回るよ
TTITLE6=初恋の人に似ている
TTITLE7=誰もいない海
TTITLE8=青春を忘れたら
TTITLE9=HISTORY
TTITLE10=名画座
TTITLE11=「ありがとう」を君に
TTITLE12=Tell me
EXTD=
EXTT0=
EXTT1=
EXTT2=
EXTT3=
EXTT4=
EXTT5=
EXTT6=
EXTT7=
EXTT8=
EXTT9=
EXTT10=
EXTT11=
EXTT12=
PLAYORDER=
